<?xml version="1.0" encoding="UTF-8" standalone="no"?>
<svg
   width="2500"
   height="2500"
   viewBox="0 0 490.04594 490"
   preserveAspectRatio="xMidYMid"
   version="1.1"
   id="svg16"
   xmlns="http://www.w3.org/2000/svg"
   xmlns:svg="http://www.w3.org/2000/svg">
  <defs
     id="defs20" />
  <g
     id="g844"
     transform="translate(117.02297)">
    <path
       d="M 21,165.75 0,172.606 21.75,175.125 21,165.75 M 19.955,206.806 128,213.714 236.045,206.806 128,185.75 19.955,206.806 M 234.5,175.125 256,172.606 234.5,166.875 v 8.25"
       fill="#3c4929"
       id="path2" />
    <path
       d="m 157.387,352.929 56.606,13.396 -56.756,17.116 0.15,-30.512"
       fill="#b7ca9d"
       id="path4" />
    <path
       d="M 19.955,92.221 V 54.019 L 128,0 128.482,0.405 128.234,48.901 128,49.003 127.595,50.12 68.497,73.976 67.955,158.013 99.407,152.723 128,147.002 V 490.03 L 95.631,473.853 V 428.082 L 67.277,416.744 V 202.069 l -47.322,4.737 V 168.611 L 0,172.606 v -72.408 l 19.955,-7.977"
       fill="#4b612c"
       id="path6" />
    <path
       d="m 99.408,152.727 -32.131,6.424 V 73.28 l 32.131,10.018 v 69.429 m 84.517,-124.768 52.106,26.06 V 92.221 L 256,100.198 V 172.6 l -19.969,-3.989 v 38.195 l -25.441,-2.538 -21.881,-2.199 v 42.939 h 47.336 v 39.284 l -21.997,1.974 v 39.611 l -53.692,10.672 v 45.77 l 53.57,-15.899 0.122,40.38 -53.692,21.282 v 45.771 L 128,490.03 V 147.002 l 28.572,5.71 30.583,4.038 V 73.966 L 128.817,51.468 128,49.003 V 0 l 55.925,27.959"
       fill="#759c3e"
       id="path8" />
    <path
       d="M 160.356,61.941 128,49.01 67.277,73.28 99.408,83.298 160.356,61.941"
       fill="#3c4929"
       id="path10" />
    <path
       d="M 67.277,73.28 128,49.01 l 12.775,5.104 19.581,7.827 28.353,11.353 -1.515,1.541 -28.876,8.991 -1.74,-0.528 L 128,73.28 99.408,83.298 67.277,73.28"
       fill="#3c4929"
       id="path12" />
    <path
       d="m 156.578,83.298 32.131,-10.004 v 85.864 l -32.131,-6.446 V 83.298"
       fill="#4b612c"
       id="path14" />
  </g>
</svg>
